<svg width="135" height="31" viewBox="0 0 135 31" fill="none" xmlns="http://www.w3.org/2000/svg">
<path d="M1 26.0697L3.01515 25.9901C5.0303 25.9106 9.06061 25.7516 13.0909 26.3056C17.1212 26.8596 21.1515 28.1267 25.1818 29.0315C29.2121 29.9363 33.2424 30.4789 37.2727 29.4127C41.303 28.3465 45.3333 25.6716 49.3636 26.0838C53.3939 26.4961 57.4242 29.9955 61.4546 26.0062C65.4849 22.0169 69.5152 10.5388 73.5455 5.16716C77.5758 -0.204434 81.6061 0.530488 85.6364 5.58505C89.6667 10.6396 93.697 20.0138 97.7273 20.0257C101.758 20.0376 105.788 10.6872 109.818 8.36977C113.848 6.05231 117.879 10.7678 121.909 10.7116C125.939 10.6555 129.97 5.82775 131.985 3.41387L134 1" stroke="#E685FF" stroke-width="2" stroke-linecap="round"/>
</svg>
