<svg width="44" height="44" viewBox="0 0 44 44" fill="none" xmlns="http://www.w3.org/2000/svg">
<rect y="0.25" width="44" height="43" rx="6" fill="#103E63"/>
<path d="M20.8536 33.0856C20.8581 32.9897 20.8819 32.8956 20.9238 32.8089C20.9658 32.7221 21.0249 32.6443 21.0978 32.58C21.1707 32.5157 21.2559 32.4662 21.3485 32.4343C21.4411 32.4024 21.5393 32.3888 21.6373 32.3943C21.7354 32.3997 21.8313 32.4242 21.9196 32.4661C22.0079 32.5081 22.0868 32.5668 22.1518 32.6388C22.2167 32.7107 22.2664 32.7946 22.2979 32.8855C22.3295 32.9764 22.3422 33.0725 22.3355 33.1682C22.3221 33.3586 22.2324 33.5363 22.0859 33.6625C21.9393 33.7887 21.7478 33.8534 21.5528 33.8426C21.3577 33.8317 21.175 33.7461 21.0441 33.6044C20.9132 33.4627 20.8448 33.2763 20.8536 33.0856ZM14.7752 32.3008C14.8601 32.1744 14.9929 32.0861 15.1444 32.0554C15.296 32.0247 15.4537 32.0541 15.5831 32.1371C15.7125 32.22 15.8028 32.3499 15.8342 32.4979C15.8656 32.646 15.8356 32.8002 15.7506 32.9266C15.7086 32.9892 15.6543 33.0431 15.591 33.0852C15.5276 33.1273 15.4564 33.1568 15.3814 33.172C15.3063 33.1872 15.229 33.1878 15.1537 33.1738C15.0784 33.1598 15.0067 33.1314 14.9427 33.0903C14.8786 33.0492 14.8235 32.9962 14.7804 32.9343C14.7373 32.8723 14.7071 32.8027 14.6916 32.7294C14.676 32.6561 14.6754 32.5805 14.6898 32.5069C14.7041 32.4334 14.7331 32.3633 14.7752 32.3007V32.3008ZM27.8126 32.0772C27.881 32.0434 27.9555 32.0231 28.0319 32.0175C28.1084 32.0119 28.1852 32.021 28.258 32.0445C28.3307 32.0679 28.3981 32.1052 28.4561 32.1541C28.5141 32.203 28.5617 32.2626 28.5961 32.3295C28.6481 32.4302 28.6684 32.5437 28.6544 32.6557C28.6403 32.7676 28.5927 32.873 28.5174 32.9584C28.442 33.0439 28.3425 33.1056 28.2313 33.1358C28.1201 33.1659 28.0023 33.1632 27.8927 33.1279C27.783 33.0926 27.6866 33.0263 27.6156 32.9375C27.5445 32.8486 27.502 32.7412 27.4934 32.6287C27.4848 32.5162 27.5106 32.4038 27.5674 32.3057C27.6242 32.2075 27.7096 32.128 27.8126 32.0772ZM16.1842 29.2831C16.3151 29.0878 16.5199 28.9513 16.7537 28.9036C16.9875 28.8559 17.2312 28.9008 17.4311 29.0286C17.6309 29.1567 17.7706 29.3571 17.8194 29.5857C17.8681 29.8144 17.8221 30.0526 17.6912 30.2481C17.5596 30.4418 17.3549 30.5767 17.1218 30.6234C16.8887 30.6701 16.6461 30.6248 16.4471 30.4974C16.248 30.3699 16.1087 30.1707 16.0594 29.9432C16.0102 29.7157 16.0551 29.4784 16.1842 29.2831ZM25.9823 28.9583C26.0877 28.9057 26.2027 28.874 26.3206 28.865C26.4386 28.8559 26.5572 28.8697 26.6697 28.9054C26.7822 28.9412 26.8864 28.9983 26.9763 29.0735C27.0662 29.1487 27.14 29.2404 27.1936 29.3435C27.2742 29.4978 27.3064 29.6719 27.2864 29.8439C27.2663 30.016 27.1948 30.1785 27.0808 30.3111C26.9668 30.4437 26.8153 30.5406 26.6453 30.5895C26.4753 30.6385 26.2943 30.6374 26.125 30.5864C25.9556 30.5355 25.8053 30.4369 25.693 30.3029C25.5806 30.169 25.5111 30.0056 25.4932 29.8333C25.4753 29.661 25.5097 29.4874 25.5922 29.3341C25.6746 29.1808 25.8015 29.0546 25.9569 28.9714L25.9823 28.9583ZM20.6264 28.4205C20.7182 28.236 20.864 28.0822 21.0452 27.9787C21.2265 27.8752 21.4351 27.8266 21.6447 27.8391C22.2278 27.8731 22.6727 28.3622 22.6391 28.9323C22.6302 29.0854 22.5867 29.2347 22.5116 29.3694C22.4365 29.5041 22.3317 29.6209 22.2049 29.7112C22.0781 29.8016 21.9323 29.8633 21.7781 29.8919C21.6239 29.9205 21.4651 29.9153 21.3132 29.8767C21.1613 29.8381 21.0201 29.767 20.8997 29.6685C20.7793 29.5701 20.6828 29.4468 20.6171 29.3075C20.5514 29.1682 20.5181 29.0164 20.5198 28.863C20.5214 28.7096 20.5578 28.5585 20.6264 28.4205ZM11.2464 26.8161C11.4217 26.7309 11.6243 26.7168 11.8101 26.7769C11.996 26.8369 12.15 26.9663 12.2387 27.1369C12.3274 27.3074 12.3436 27.5053 12.2837 27.6874C12.2238 27.8696 12.0927 28.0212 11.9189 28.1093C11.7451 28.1974 11.5428 28.2149 11.3559 28.1579C11.1691 28.1009 11.0128 27.974 10.9212 27.805C10.8296 27.6359 10.81 27.4383 10.8668 27.2552C10.9235 27.0721 11.052 26.9183 11.2242 26.8274L11.2463 26.8161H11.2464ZM31.1141 27.0224C31.167 26.9417 31.2358 26.8721 31.3165 26.8175C31.3971 26.763 31.488 26.7246 31.584 26.7046C31.6799 26.6846 31.7789 26.6833 31.8753 26.701C31.9718 26.7186 32.0637 26.7547 32.1457 26.8072C32.2277 26.8598 32.2983 26.9277 32.3533 27.0071C32.4084 27.0864 32.4467 27.1757 32.4662 27.2696C32.4858 27.3635 32.486 27.4603 32.467 27.5544C32.448 27.6484 32.4102 27.7379 32.3556 27.8175C32.2468 27.9763 32.0782 28.0867 31.8866 28.1247C31.6949 28.1628 31.4957 28.1253 31.3321 28.0206C31.1685 27.9158 31.0539 27.7522 31.013 27.5653C30.9722 27.3784 31.0085 27.1833 31.1141 27.0224ZM18.67 23.8057C19.0232 23.6194 19.4299 23.5535 19.8258 23.6184C20.2216 23.6834 20.5839 23.8756 20.8554 24.1645C21.1269 24.4534 21.292 24.8226 21.3246 25.2135C21.3573 25.6045 21.2555 25.9949 21.0355 26.323C20.8719 26.5684 20.648 26.7699 20.3842 26.909C20.1204 27.0481 19.8252 27.1205 19.5255 27.1195C19.1241 27.1192 18.7344 26.9881 18.4178 26.7469C18.1013 26.5057 17.8762 26.1683 17.778 25.788C17.6798 25.4077 17.7143 25.0062 17.8758 24.6472C18.0374 24.2881 18.3169 23.992 18.67 23.8057ZM23.2268 23.6732C23.6361 23.5444 24.0789 23.5627 24.4755 23.7249C24.8721 23.887 25.1964 24.1822 25.39 24.5573C25.8352 25.4256 25.4783 26.4824 24.5915 26.9211C24.3397 27.0459 24.0617 27.1118 23.7794 27.1138C23.3495 27.1137 22.9338 26.9637 22.6071 26.6906C22.2804 26.4175 22.0643 26.0394 21.9976 25.6244C21.931 25.2093 22.0182 24.7847 22.2436 24.4269C22.4689 24.0692 22.8176 23.8019 23.2268 23.6732ZM14.5414 24.6519C14.6437 24.5357 14.7711 24.4432 14.9144 24.3809C15.0577 24.3186 15.2134 24.2882 15.3702 24.2918C15.527 24.2954 15.6811 24.333 15.8212 24.4018C15.9614 24.4706 16.0842 24.5689 16.1808 24.6896C16.2774 24.8104 16.3454 24.9506 16.3799 25.1001C16.4143 25.2497 16.4145 25.4048 16.3802 25.5544C16.3459 25.704 16.2781 25.8443 16.1817 25.9652C16.0853 26.0861 15.9626 26.1845 15.8225 26.2535C15.6035 26.3614 15.3529 26.3918 15.1136 26.3394C14.8742 26.287 14.6608 26.1552 14.5097 25.9663C14.3586 25.7774 14.2792 25.5432 14.285 25.3036C14.2908 25.0639 14.3814 24.8336 14.5414 24.6519ZM27.0734 24.7317C27.3948 24.2531 28.0524 24.1199 28.5419 24.4341C29.0307 24.7489 29.1667 25.3905 28.8465 25.8693C28.5251 26.3477 27.8675 26.481 27.378 26.1669C26.8883 25.8527 26.7519 25.2102 27.0734 24.7317ZM15.586 21.6658C15.6423 20.7072 16.4733 19.9691 17.4551 20.0055C18.4368 20.0419 19.2081 20.8394 19.1901 21.7994C19.1723 22.7485 18.389 23.5113 17.4217 23.5293L17.3887 23.5296H17.2901C16.3052 23.4733 15.5504 22.6563 15.5894 21.6968L15.5909 21.6648L15.586 21.6658ZM24.0953 21.646C24.1525 20.6739 25.0053 19.931 26 19.9869C26.2363 19.9987 26.4678 20.0564 26.6811 20.1566C26.8943 20.2569 27.0849 20.3976 27.2419 20.5706C27.4717 20.8219 27.6229 21.1324 27.6776 21.4652C27.7323 21.798 27.6883 22.1392 27.5506 22.4482C27.413 22.7573 27.1876 23.0213 26.9011 23.209C26.6146 23.3967 26.279 23.5002 25.9342 23.5072L25.8975 23.5076H25.7929C24.7982 23.4517 24.0381 22.6183 24.0952 21.6462L24.0953 21.646ZM11.2945 21.7262C11.3081 21.4931 11.4158 21.2748 11.594 21.1193C11.7722 20.9639 12.0063 20.8839 12.2448 20.8971C12.4834 20.9105 12.7068 21.016 12.8659 21.1903C13.025 21.3645 13.1068 21.5934 13.0933 21.8266C13.0797 22.0597 12.9719 22.278 12.7935 22.4334C12.6152 22.5888 12.3811 22.6686 12.1425 22.6553C11.904 22.642 11.6807 22.5366 11.5216 22.3624C11.3626 22.1881 11.2809 21.9593 11.2945 21.7262ZM30.1968 21.6863C30.2116 21.4541 30.3199 21.237 30.4979 21.0826C30.676 20.9281 30.9093 20.8489 31.147 20.8621C31.3847 20.8753 31.6074 20.9799 31.7664 21.153C31.9254 21.3262 32.0078 21.5538 31.9956 21.7862C31.9819 22.0194 31.874 22.2377 31.6957 22.3932C31.5173 22.5487 31.2831 22.6287 31.0445 22.6155C30.806 22.6021 30.5827 22.4967 30.4238 22.3225C30.2648 22.1482 30.1832 21.9194 30.1968 21.6864V21.6863ZM8.84326 21.2171L8.86502 21.218C8.94152 21.222 9.01644 21.2408 9.08548 21.2732C9.15452 21.3057 9.21633 21.3511 9.26734 21.407C9.31836 21.4628 9.35758 21.528 9.38275 21.5987C9.40793 21.6694 9.41856 21.7443 9.41403 21.819C9.40746 21.9305 9.36751 22.0376 9.29913 22.127C9.23075 22.2165 9.13698 22.2843 9.02947 22.322C8.92196 22.3598 8.80546 22.3658 8.69448 22.3393C8.58349 22.3129 8.48291 22.2551 8.40526 22.1732C8.32761 22.0914 8.27631 21.989 8.25774 21.8788C8.23918 21.7687 8.25417 21.6556 8.30085 21.5537C8.34753 21.4518 8.42383 21.3656 8.52028 21.3057C8.61672 21.2459 8.72904 21.2151 8.84326 21.2171ZM34.4668 21.1583L34.4911 21.1593C34.6455 21.1682 34.79 21.2366 34.8929 21.3494C34.9958 21.4622 35.0487 21.6103 35.0401 21.7612C35.0336 21.8728 34.9936 21.98 34.9252 22.0696C34.8567 22.1591 34.7629 22.227 34.6553 22.2649C34.5477 22.3028 34.4311 22.3089 34.32 22.2825C34.2089 22.2561 34.1081 22.1984 34.0303 22.1166C33.9524 22.0347 33.9009 21.9323 33.8821 21.8221C33.8634 21.7118 33.8782 21.5986 33.9247 21.4965C33.9712 21.3944 34.0474 21.3079 34.1438 21.2478C34.2402 21.1877 34.3525 21.1566 34.4668 21.1583ZM19.5098 16.4018C19.8435 16.4002 20.1712 16.4895 20.456 16.6596C20.7408 16.8297 20.9715 17.074 21.1223 17.365C21.2616 17.6339 21.328 17.9332 21.3153 18.2344C21.3026 18.5355 21.2111 18.8285 21.0496 19.0852C20.888 19.342 20.6618 19.554 20.3926 19.7011C20.1234 19.8481 19.8201 19.9253 19.5117 19.9252C19.1772 19.9262 18.849 19.836 18.5641 19.6646C18.2793 19.4932 18.049 19.2476 17.8993 18.9552C17.7616 18.6866 17.6964 18.388 17.7099 18.0878C17.7234 17.7876 17.8152 17.4958 17.9765 17.24C18.1379 16.9842 18.3634 16.7729 18.6317 16.6262C18.9001 16.4795 19.2023 16.4023 19.5098 16.4018ZM23.7646 16.3893C24.166 16.3898 24.5556 16.5211 24.872 16.7624C25.1884 17.0037 25.4134 17.3412 25.5113 17.7216C25.6093 18.1019 25.5748 18.5033 25.413 18.8622C25.2513 19.2212 24.9718 19.5172 24.6186 19.7034C24.2653 19.8896 23.8587 19.9553 23.4629 19.8902C23.0672 19.8251 22.7049 19.6329 22.4335 19.344C22.1622 19.0551 21.9971 18.686 21.9645 18.2951C21.9319 17.9042 22.0337 17.5138 22.2537 17.1858C22.4181 16.9409 22.6423 16.7399 22.9061 16.6008C23.1699 16.4618 23.4649 16.3891 23.7646 16.3893ZM14.4427 17.6424C14.7639 17.1638 15.4212 17.0301 15.911 17.344C16.4008 17.6578 16.5375 18.3003 16.2166 18.7789C15.8954 19.2576 15.2381 19.3913 14.7483 19.0776C14.6317 19.003 14.5313 18.9068 14.4528 18.7943C14.3743 18.6818 14.3193 18.5552 14.2909 18.4219C14.2625 18.2886 14.2613 18.1512 14.2874 18.0174C14.3134 17.8837 14.3662 17.7562 14.4427 17.6424ZM27.4686 17.2581C27.593 17.1967 27.7285 17.1599 27.8674 17.1498C28.0064 17.1397 28.146 17.1564 28.2783 17.1991C28.4106 17.2418 28.533 17.3095 28.6384 17.3985C28.7439 17.4874 28.8304 17.5959 28.8929 17.7175C29.1563 18.2288 28.9458 18.8519 28.4227 19.1095C27.8996 19.3669 27.2619 19.1611 26.9984 18.65C26.735 18.1387 26.9456 17.5155 27.4686 17.258V17.2581ZM10.9348 15.6947C11.0428 15.5339 11.2117 15.4215 11.4044 15.3823C11.4998 15.3629 11.5982 15.3621 11.694 15.3798C11.7897 15.3976 11.881 15.4336 11.9625 15.4858C12.044 15.5381 12.1142 15.6055 12.169 15.6842C12.2239 15.7629 12.2623 15.8515 12.2822 15.9447C12.302 16.038 12.3029 16.1341 12.2847 16.2277C12.2665 16.3213 12.2297 16.4105 12.1762 16.4901C12.0683 16.651 11.8994 16.7634 11.7067 16.8026C11.514 16.8417 11.3132 16.8045 11.1486 16.699C10.984 16.5935 10.869 16.4285 10.8289 16.2401C10.7888 16.0518 10.8269 15.8556 10.9348 15.6947ZM31.3748 15.4012C31.5502 15.3173 31.7524 15.3044 31.9376 15.3652C32.1227 15.4261 32.2758 15.5558 32.3637 15.7262C32.4517 15.8967 32.4673 16.0941 32.4072 16.2758C32.3471 16.4574 32.2162 16.6086 32.0429 16.6965C31.8669 16.783 31.663 16.7977 31.476 16.7374C31.289 16.677 31.1341 16.5466 31.0454 16.3748C30.9571 16.203 30.9421 16.0039 31.0038 15.8213C31.0656 15.6387 31.199 15.4876 31.3748 15.4011V15.4012ZM20.5693 14.5793C20.6028 14.0081 21.1038 13.5715 21.6884 13.604C22.2729 13.6366 22.7199 14.126 22.6868 14.6974C22.6539 15.2686 22.1533 15.7056 21.5687 15.6736C20.9836 15.6409 20.5362 15.1511 20.5693 14.5793ZM16.4958 12.9811C16.6014 12.9291 16.7165 12.8979 16.8345 12.8893C16.9525 12.8808 17.071 12.895 17.1834 12.9313C17.2957 12.9675 17.3997 13.025 17.4893 13.1004C17.5789 13.1759 17.6524 13.2679 17.7057 13.3712C17.7589 13.4744 17.7908 13.5869 17.7996 13.7022C17.8083 13.8175 17.7937 13.9334 17.7567 14.0432C17.7196 14.1529 17.6608 14.2545 17.5835 14.3421C17.5063 14.4297 17.4122 14.5015 17.3065 14.5536C17.0931 14.6586 16.8458 14.6766 16.6189 14.6034C16.392 14.5303 16.2041 14.372 16.0966 14.1635C15.9891 13.955 15.9708 13.7132 16.0456 13.4915C16.1205 13.2698 16.2824 13.0862 16.4958 12.9811ZM25.596 13.2636C25.6935 13.1177 25.8332 13.0034 25.9972 12.9351C26.1612 12.8668 26.3423 12.8475 26.5176 12.8798C26.6928 12.912 26.8543 12.9943 26.9817 13.1162C27.1091 13.2381 27.1967 13.3942 27.2333 13.5648C27.2699 13.7353 27.254 13.9127 27.1875 14.0744C27.1211 14.2361 27.007 14.3749 26.8599 14.4733C26.7127 14.5716 26.539 14.6252 26.3607 14.6271C26.1824 14.629 26.0075 14.5792 25.8581 14.484C25.7588 14.4208 25.6731 14.3391 25.6062 14.2435C25.5392 14.1479 25.4922 14.0404 25.4678 13.927C25.4435 13.8136 25.4422 13.6966 25.4642 13.5828C25.4862 13.469 25.531 13.3605 25.596 13.2636ZM14.9473 10.4181C15.0851 10.3507 15.2446 10.3393 15.3909 10.3863C15.5373 10.4334 15.6587 10.5351 15.7285 10.6693C15.7984 10.8035 15.8111 10.9593 15.7639 11.1026C15.7167 11.246 15.6134 11.3652 15.4766 11.4344C15.4079 11.4687 15.333 11.4894 15.2561 11.4953C15.1792 11.5012 15.1019 11.4921 15.0286 11.4687C14.9553 11.4452 14.8875 11.4078 14.829 11.3586C14.7706 11.3094 14.7227 11.2494 14.6881 11.1821C14.6191 11.0471 14.6076 10.891 14.6562 10.7478C14.7048 10.6046 14.8095 10.486 14.9473 10.4181ZM27.5385 10.5858C27.5804 10.5232 27.6346 10.4692 27.6979 10.4269C27.7611 10.3847 27.8323 10.3551 27.9073 10.3397C27.9823 10.3243 28.0597 10.3236 28.135 10.3374C28.2103 10.3513 28.282 10.3795 28.3462 10.4205C28.4103 10.4615 28.4656 10.5144 28.5088 10.5762C28.552 10.6381 28.5823 10.7076 28.598 10.7809C28.6137 10.8542 28.6145 10.9298 28.6003 11.0034C28.5862 11.077 28.5573 11.1471 28.5153 11.2098C28.4307 11.3364 28.298 11.4249 28.1466 11.456C27.9951 11.487 27.8373 11.4579 27.7077 11.3752C27.5782 11.2925 27.4876 11.1628 27.4559 11.0148C27.4241 10.8668 27.4539 10.7125 27.5385 10.5859V10.5858ZM21.3738 9.70014C21.4662 9.66723 21.5643 9.65258 21.6625 9.65703C21.7607 9.66148 21.857 9.68495 21.9458 9.72608C22.0347 9.7672 22.1143 9.82516 22.18 9.8966C22.2457 9.96803 22.2963 10.0515 22.3287 10.1422C22.3611 10.2329 22.3748 10.3289 22.369 10.4248C22.3631 10.5207 22.3378 10.6145 22.2946 10.7008C22.2513 10.787 22.1909 10.864 22.117 10.9273C22.043 10.9906 21.9569 11.0389 21.8637 11.0694C21.6787 11.1299 21.4767 11.1168 21.3015 11.0329C21.1263 10.949 20.9919 10.801 20.9275 10.621C20.8631 10.441 20.8738 10.2434 20.9574 10.0711C21.0409 9.89872 21.1905 9.76546 21.3738 9.70014Z" fill="#89B9FF"/>
</svg>
