<svg width="138" height="31" viewBox="0 0 138 31" fill="none" xmlns="http://www.w3.org/2000/svg">
<path d="M137 22.3417L134.985 22.245C132.97 22.1484 128.939 21.9551 124.909 22.6284C120.879 23.3016 116.848 24.8415 112.818 25.9412C108.788 27.0408 103.53 20.8617 99.5 19.566C95.4697 18.2702 92.5303 29.4493 88.5 29.9503C84.4697 30.4513 80.5758 27.1128 76.5454 22.2645C72.5151 17.4163 68.4848 13.5365 64.4545 7.00841C60.4242 0.480283 56.3939 1.37344 52.3636 7.51627C48.3333 13.6591 44.303 14.982 40.2727 14.9964C36.2424 15.0109 31.5303 21.1237 27.5 18.3072C23.4697 15.4908 20.1212 3.7452 16.0909 3.67697C12.0606 3.60874 6.5 6.66419 1 1" stroke="#F61C7A" stroke-width="2" stroke-linecap="round"/>
</svg>
